# xmcd CD database file
#
# Track frame offsets:
#	150
#	8675
#	27070
#	50750
#	69727
#	97342
#
# Disc length: 1618 seconds
#
# Revision: 1
# Processed by: cddbd v1.5.1PL0 Copyright (c) Steve Scherf et al.
# Submitted via: CDex 1.51
#
DISCID=4c065006
DTITLE=DJ HASEBE - adore
DYEAR=1998
DGENRE=Vocal
TTITLE0=adore Ft. Adriana Evans, Sugar Soul, Emiko
TTITLE1=Aftre The Party Ft. Adriana Evans
TTITLE2=Orange Ft. Sugar Soul
TTITLE3=蒼い空 Ft. Emiko
TTITLE4=いとしさの中で Ft. Sugar Soul
TTITLE5=今すぐ欲しい(Butter Smoother) Ft. Sugar Soul and Zeebra
EXTD=YEAR: 1998
EXTT0=
EXTT1=
EXTT2=
EXTT3=
EXTT4=
EXTT5=
PLAYORDER=
